# xmcd
#
# Track frame offsets: 
#        150
#        18213
#        32194
#        56109
#        74505
#        92153
#        126750
#        149488
#
# Disc length: 2286 seconds
#
# Revision: 0
# Processed by: cddbd v1.5.2PL0 Copyright (c) Steve Scherf et al.
# Submitted via: ExactAudioCopy v0.99pb4
#
DISCID=7408ec08
DTITLE=Jay Gordon And The Penetrators - Fresh Blood-Live-New Life
DYEAR=2009
DGENRE=Blues
TTITLE0=Good Morning Little School Girl
TTITLE1=White Rabbit
TTITLE2=Heartbreaker
TTITLE3=Honky Tonk Woman
TTITLE4=Runaway
TTITLE5=Rock Me
TTITLE6=That Was Yesterday
TTITLE7=Cant You See
EXTD=
EXTT0=
EXTT1=
EXTT2=
EXTT3=
EXTT4=
EXTT5=
EXTT6=
EXTT7=
PLAYORDER=
